PathFileType	4	(X/Y/Z)	s09c0103.trc
DataRate	CameraRate	NumFrames	NumMarkers	Units	OrigDataRate	OrigDataStartFrame	OrigNumFrames
200	200	4	50	mm	200	500	2000
Frame#	Time	racr			lacr			c7			jug			rlel			rdr			llel			ldr			s2			lic			ric			lasi			rasi			rpsi			lpsi			rgt			lgt			rth1			rth2			rth3			rth4			rlfc			rmfc			rsh1			rsh2			rsh3			rsh4			rlmal			rmmal			rcal			rtoe			rmt5			lth1			lth2			lth4			lth3			llfc			lmfc			llmal			lmmal			lcal			lmt5			lsh1			lsh2			lsh3			lsh4			ltoe			SBIKE			LBIKE			RBIKE			
		X1	Y1	Z1	X2	Y2	Z2	X3	Y3	Z3	X4	Y4	Z4	X5	Y5	Z5	X6	Y6	Z6	X7	Y7	Z7	X8	Y8	Z8	X9	Y9	Z9	X10	Y10	Z10	X11	Y11	Z11	X12	Y12	Z12	X13	Y13	Z13	X14	Y14	Z14	X15	Y15	Z15	X16	Y16	Z16	X17	Y17	Z17	X18	Y18	Z18	X19	Y19	Z19	X20	Y20	Z20	X21	Y21	Z21	X22	Y22	Z22	X23	Y23	Z23	X24	Y24	Z24	X25	Y25	Z25	X26	Y26	Z26	X27	Y27	Z27	X28	Y28	Z28	X29	Y29	Z29	X30	Y30	Z30	X31	Y31	Z31	X32	Y32	Z32	X33	Y33	Z33	X34	Y34	Z34	X35	Y35	Z35	X36	Y36	Z36	X37	Y37	Z37	X38	Y38	Z38	X39	Y39	Z39	X40	Y40	Z40	X41	Y41	Z41	X42	Y42	Z42	X43	Y43	Z43	X44	Y44	Z44	X45	Y45	Z45	X46	Y46	Z46	X47	Y47	Z47	X48	Y48	Z48	X49	Y49	Z49	X50	Y50	Z50	
500	2.5000	487.133228	1240.754415	-60.468426	552.542133	1223.231212	-367.405806	492.592924	1279.243939	-216.982555	473.050954	1143.519249	-218.141591	481.375671	1001.735738	29.182245	690.178994	885.668550	-42.005793	503.917649	1007.450343	-535.845077	694.084659	872.830706	-445.440716	8.237747	1120.388760	-280.412811	151.756005	1096.777071	-420.496490	142.157218	1142.344578	-122.538661	190.606219	1044.899938	-388.488733	191.532246	1095.161846	-135.494813	33.898966	1157.773089	-225.072636	44.515212	1149.294921	-335.152579	140.804909	1033.802788	-70.944370	109.373846	957.080159	-441.428359	268.188052	978.437337	-85.517864	354.368003	969.394768	-100.706020	423.601757	914.858667	-102.599220	363.496465	994.378269	-126.690184	503.187503	839.301613	-136.113568	483.266912	811.065336	-233.342474	443.161594	758.618951	-96.862783	417.947346	672.086427	-102.609859	355.323999	611.792297	-91.558459	438.922262	659.404475	-133.244082	305.397123	520.225112	-82.463070	300.233130	529.648042	-160.801199	218.816158	482.930316	-112.658209	484.574169	482.296974	-131.218990	407.387654	463.915521	-61.224046	196.189482	847.875632	-436.181931	262.157491	795.296803	-427.809637	292.997223	816.379233	-422.380730	294.519509	711.519033	-415.775331	330.136302	618.241992	-398.749498	341.455487	607.208140	-301.262004	130.389590	311.109369	-403.136725	156.538075	307.644607	-333.701015	60.667299	306.775566	-362.589549	185.087744	188.662317	-428.473618	276.278300	535.364457	-420.139061	250.429960	453.456296	-409.713176	185.270852	392.933988	-409.516712	272.205528	442.914289	-378.106225	275.840250	157.010705	-363.893482	-65.131518	851.215949	-241.936038	21.158400	83.702885	-442.406682	21.105822	84.028076	-44.047258	
501	2.5050	487.120900	1239.881858	-60.467859	551.576194	1220.319502	-369.186111	492.122303	1278.260074	-217.757714	471.501458	1142.197205	-218.039677	479.874501	1000.535024	28.859536	689.494873	885.672105	-42.139023	500.860168	1004.283804	-536.197859	693.124034	872.660265	-446.043691	9.627126	1118.398464	-280.272706	150.157827	1096.568124	-419.469307	141.405882	1141.423672	-121.083297	189.304478	1044.938286	-387.470572	191.056986	1094.525155	-134.584203	32.840239	1156.783256	-223.878016	42.521445	1149.194829	-333.298665	139.684800	1031.003032	-70.304475	109.873259	956.533495	-440.994824	267.721059	973.475260	-85.088110	354.038687	963.421747	-99.303025	422.294980	907.271016	-102.208170	363.624942	988.659738	-124.345602	500.923085	831.876348	-135.175051	481.245771	803.980182	-231.944600	442.730322	749.864203	-95.706965	418.991271	662.956905	-102.163325	357.635146	601.451355	-91.081120	439.608101	651.274181	-133.404956	310.061899	509.415902	-82.227609	304.446769	519.362938	-160.721248	224.014907	469.409072	-112.702049	489.536879	478.321028	-130.935234	413.289949	457.127112	-60.951742	198.013483	849.173015	-435.836126	264.325524	797.061793	-426.586523	294.826031	818.432082	-420.476992	297.190068	713.527623	-414.941172	333.041077	620.823253	-398.402434	343.252167	609.632086	-300.759396	125.597075	318.402022	-402.608331	151.755225	314.558983	-333.108224	55.848941	315.242766	-361.955725	178.151961	195.125765	-428.203377	276.826996	539.158773	-419.884832	249.018380	457.752446	-409.387180	182.368557	398.864367	-409.002532	270.631847	446.818535	-377.891506	268.524714	162.018352	-364.151893	-65.084005	851.204897	-241.882228	21.158019	83.683151	-442.398034	21.103040	83.983638	-44.027933	
502	2.5100	487.378212	1239.299547	-60.596045	550.545986	1217.472666	-371.165114	492.617300	1277.033213	-220.139267	471.020423	1141.207745	-219.198285	477.998549	999.862330	28.679453	688.744694	885.727332	-42.143347	497.471590	1001.065564	-536.776562	692.404853	872.536403	-446.530712	9.098335	1117.503022	-279.120415	148.555027	1096.466391	-418.369819	140.751485	1140.380086	-119.403507	187.950170	1045.410323	-386.352709	190.667642	1093.639202	-133.390800	31.789093	1155.696287	-222.500837	41.022770	1148.578532	-332.048243	138.661124	1027.763959	-69.434110	110.423128	956.244318	-440.654744	267.412194	968.687648	-83.495764	353.455464	957.227196	-96.905408	420.750703	899.792848	-100.954450	363.797883	982.659199	-121.900258	498.628384	824.077156	-134.219992	478.758474	796.316691	-229.353874	442.179820	741.073211	-94.601854	420.759537	653.991694	-100.789233	359.968603	590.975534	-90.656329	440.504925	642.832752	-133.247226	314.606047	498.631397	-82.054259	308.291609	508.920826	-160.400277	230.056116	455.588573	-113.180505	494.987764	473.130993	-130.824073	419.015328	449.849494	-60.769246	199.825457	850.606273	-435.289300	266.400110	799.087959	-425.360617	296.605187	820.644036	-418.523093	299.904903	715.735784	-414.197630	335.698217	623.479294	-398.077658	345.392396	611.958373	-300.425950	121.056223	326.045652	-402.279186	147.399091	321.715141	-332.771464	51.308526	323.962879	-361.441512	171.599180	202.004457	-428.021450	277.369166	543.080246	-419.788905	247.728403	462.435940	-409.419069	179.577448	405.207853	-408.730881	268.925749	450.730920	-377.526496	261.558988	167.550320	-364.292059	-65.029472	851.197223	-241.818457	21.155338	83.671175	-442.393859	21.099403	83.968425	-44.024457	
503	2.5150	487.895273	1238.830494	-60.847492	549.398842	1214.797487	-373.356782	493.049436	1275.865732	-222.776193	470.917581	1140.224363	-220.537490	476.568303	999.106367	28.155350	688.122477	885.755927	-42.101362	494.673726	997.921412	-536.939290	691.793149	872.443290	-447.107517	7.750569	1116.843239	-277.658654	146.964230	1096.449051	-417.137939	139.735067	1139.087841	-117.836452	186.595399	1046.099554	-385.501006	190.180229	1092.494387	-132.118983	30.830939	1154.487279	-220.940870	39.499526	1148.053346	-330.719605	137.952590	1024.309161	-68.520304	110.919222	956.110331	-440.296816	267.060476	963.783830	-82.041253	352.530964	951.190538	-94.706405	419.111046	891.979290	-99.926287	363.809829	976.827858	-119.282827	496.269919	816.367052	-132.995604	476.553872	788.830601	-227.673532	441.508566	732.165864	-93.507276	420.992130	644.520105	-101.196308	362.308238	580.517279	-90.152869	441.313760	634.397449	-133.079265	319.054248	487.886876	-81.780513	312.490211	498.697634	-160.183568	235.836092	442.004232	-114.522331	499.939480	467.489156	-130.722109	424.334556	442.213872	-60.447583	201.476746	852.307214	-434.750021	268.454412	801.347791	-424.152108	298.314198	823.130564	-416.495708	302.593733	718.178679	-413.597254	338.096748	626.512338	-397.898302	346.708645	614.532192	-300.328872	116.641111	333.943106	-402.113937	143.299430	329.161306	-332.688322	46.917371	332.809772	-361.203211	165.488131	209.263063	-427.874013	277.985212	547.178532	-419.780048	246.561034	467.312115	-409.383675	177.063974	411.611473	-408.537225	267.442406	455.125858	-377.521530	255.073939	173.617600	-364.303974	-64.976143	851.161498	-241.743135	21.152743	83.629043	-442.398285	21.080153	83.936202	-44.023014	
